<?xml version="1.0" encoding="UTF-8" standalone="no"?>
<svg width="276px" height="348px" viewBox="0 0 276 348" version="1.1" xmlns="http://www.w3.org/2000/svg" xmlns:xlink="http://www.w3.org/1999/xlink">
    <!-- Generator: Sketch 39.1 (31720) - http://www.bohemiancoding.com/sketch -->
    <title>footer_icon</title>
    <desc>Created with Sketch.</desc>
    <defs></defs>
    <g id="Page-1" stroke="none" stroke-width="1" fill="none" fill-rule="evenodd" opacity="0.0700000003">
        <g id="footer_icon" fill="#FFFFFF">
            <g id="BigTree_Logo_final">
                <path d="M137.592082,0.552898535 C61.7239732,0.552898535 0,62.1319729 0,137.818975 C0,204.320048 47.6671839,259.89236 110.692321,272.410704 L110.692321,237.782429 C93.2741913,233.145894 77.2777037,224.110209 64.1877516,211.047982 C44.585955,191.498211 33.7941238,165.48794 33.7941238,137.818975 C33.7941238,110.159023 44.585955,84.151758 64.1877516,64.5959772 C83.7955721,45.0401964 109.861022,34.2736994 137.592082,34.2736994 C165.323143,34.2736994 191.385581,45.0401964 210.990389,64.5959772 C230.59821,84.151758 241.399077,110.159023 241.399077,137.818975 C241.399077,165.48794 230.59821,191.498211 210.990389,211.047982 C197.906461,224.101195 181.906962,233.136879 164.497867,237.773414 L164.497867,272.410704 C227.526017,259.89236 275.184165,204.320048 275.184165,137.818975 C275.184165,62.1319729 213.45718,0.552898535 137.592082,0.552898535" id="Fill-1"></path>
                <polyline id="Fill-4" points="121.484152 274.060385 121.484152 347.851305 153.709048 347.851305 153.709048 219.765148 225.501984 148.149763 202.722576 125.414816 153.709048 174.313283 153.709048 84.5544124 121.484152 84.5544124 121.484152 174.592737 72.1875014 125.405801 49.8177191 147.72307 121.484152 219.236289 121.484152 274.060385"></polyline>
            </g>
        </g>
    </g>
</svg>