<?xml version="1.0" standalone="no"?><!-- Generator: Adobe Fireworks CS5.1, Export SVG Extension by Aaron Beall (http://fireworks.abeall.com) . Version: 0.6.1  --><!DOCTYPE svg PUBLIC "-//W3C//DTD SVG 1.1//EN" "http://www.w3.org/Graphics/SVG/1.1/DTD/svg11.dtd"><svg id="icons.fw-Page%201" viewBox="0 0 1000 500" style="background-color:#ffffff00" version="1.1"	xmlns="http://www.w3.org/2000/svg" xmlns:xlink="http://www.w3.org/1999/xlink" xml:space="preserve"	x="0px" y="0px" width="1000px" height="500px">	<g id="Layer%201">		<path d="M 97.881 4.2883 C 96.8723 4.7419 95.7885 5.0486 94.6506 5.1865 C 95.8119 4.4805 96.7037 3.3628 97.1235 2.0308 C 96.037 2.6846 94.8335 3.1592 93.5524 3.415 C 92.5264 2.3064 91.0647 1.6138 89.4473 1.6138 C 86.3411 1.6138 83.823 4.1675 83.823 7.3174 C 83.823 7.7644 83.8728 8.1997 83.9686 8.6172 C 79.2944 8.3794 75.1504 6.1086 72.3766 2.6577 C 71.8925 3.5002 71.6152 4.48 71.6152 5.5254 C 71.6152 7.5041 72.608 9.2498 74.1172 10.2727 C 73.1952 10.2432 72.328 9.9866 71.5697 9.5593 C 71.5693 9.583 71.5692 9.6069 71.5692 9.6309 C 71.5692 12.3945 73.5079 14.6997 76.0806 15.2236 C 75.6086 15.354 75.1118 15.4238 74.599 15.4238 C 74.2366 15.4238 73.8843 15.3879 73.5408 15.3215 C 74.2565 17.5874 76.3335 19.2366 78.7944 19.2827 C 76.8698 20.8123 74.4448 21.7241 71.8098 21.7241 C 71.3557 21.7241 70.9082 21.697 70.4683 21.6445 C 72.9572 23.2627 75.9133 24.207 79.0894 24.207 C 89.4341 24.207 95.0908 15.5159 95.0908 7.9788 C 95.0908 7.7314 95.0854 7.4854 95.0747 7.241 C 96.1733 6.4368 97.127 5.4321 97.881 4.2883 Z" fill="#333333"/>		<path d="M 134.5746 26 C 135.361 26 136 25.3618 136 24.575 L 136 1.425 C 136 0.6379 135.3624 0 134.576 0 L 111.424 0 C 110.6373 0 110 0.6379 110 1.425 L 110 24.575 C 110 25.3618 110.6373 26 111.424 26 L 124 26 L 124 16 L 121 16 L 121 12 L 124 12 L 124 9.1262 C 124 5.791 126.0419 3.8999 129.0148 3.8999 C 130.4387 3.8999 131.6432 4.0059 132 4.0535 L 132 8 L 129.9366 8 C 128.3199 8 128 8.7688 128 9.897 L 128 12 L 131.8558 12 L 131.3552 16 L 128 16 L 128 26 L 134.5746 26 Z" fill="#333333"/>		<path d="M 43.1334 0.3599 C 35.8812 0.3599 30 6.2449 30 13.5054 C 30 19.3123 33.7629 24.239 38.9827 25.9775 C 39.6394 26.0979 39.8792 25.6921 39.8792 25.3438 C 39.8792 25.0317 39.8678 24.2051 39.8615 23.1082 C 36.2079 23.9026 35.437 21.3462 35.437 21.3462 C 34.8398 19.8276 33.9788 19.4233 33.9788 19.4233 C 32.7863 18.6077 34.0688 18.6243 34.0688 18.6243 C 35.387 18.7173 36.0808 19.979 36.0808 19.979 C 37.2523 21.9875 39.1548 21.4077 39.9032 21.0713 C 40.0225 20.2217 40.3618 19.6426 40.7371 19.314 C 37.8204 18.9822 34.7544 17.8545 34.7544 12.8174 C 34.7544 11.3823 35.2661 10.209 36.1063 9.29 C 35.9713 8.9575 35.5205 7.6211 36.2351 5.8115 C 36.2351 5.8115 37.3378 5.458 39.8469 7.1589 C 40.8945 6.8674 42.0181 6.7217 43.135 6.7166 C 44.2504 6.7217 45.374 6.8674 46.4232 7.1589 C 48.9307 5.458 50.0315 5.8115 50.0315 5.8115 C 50.748 7.6211 50.2972 8.9575 50.1622 9.29 C 51.0039 10.209 51.5122 11.3823 51.5122 12.8174 C 51.5122 17.8669 48.4413 18.978 45.5153 19.3037 C 45.9869 19.7095 46.4071 20.5117 46.4071 21.7378 C 46.4071 23.4951 46.391 24.9128 46.391 25.3438 C 46.391 25.6953 46.6276 26.1042 47.2942 25.9758 C 52.5087 24.2344 56.2684 19.3108 56.2684 13.5054 C 56.2684 6.2449 50.3875 0.3599 43.1334 0.3599 Z" fill="#333333"/>		<g>			<rect x="0" y="0" width="20" height="3" fill="#ffffff"/>			<rect x="0" y="12" width="20" height="3" fill="#ffffff"/>			<rect x="0" y="6" width="20" height="3" fill="#ffffff"/>		</g>		<rect x="200" y="0" width="40" height="40" fill="none"/>		<rect x="250" y="0" width="40" height="40" fill="none"/>		<rect x="300" y="0" width="40" height="40" fill="none"/>		<path d="M 0 74 L 34 108 L 36 106 L 4 74 L 36 42 L 34 40 L 0 74 Z" fill="#cccccc"/>		<path d="M 214 20 L 223 29 L 225 27 L 218 20 L 225 13 L 223 11 L 214 20 Z" fill="#a4885f"/>		<path d="M 276 20 L 267 29 L 265 27 L 272 20 L 265 13 L 267 11 L 276 20 Z" fill="#a4885f"/>		<path d="M 86 74 L 52 108 L 50 106 L 82 74 L 50 42 L 52 40 L 86 74 Z" fill="#cccccc"/>		<g>			<path d="M 327 29 L 329 27 L 322 20 L 329 13 L 327 11 L 320 18 L 313 11 L 311 13 L 318 20 L 311 27 L 313 29 L 320 22 L 327 29 Z" fill="#a4885f"/>		</g>		<path d="M 150 40 L 163 40 L 163 37 L 155 37 L 170 22 L 185 37 L 177 37 L 177 40 L 190 40 L 190 27 L 187 27 L 187 35 L 172 20 L 187 5 L 187 13 L 190 13 L 190 0 L 177 0 L 177 3 L 185 3 L 170 18 L 155 3 L 163 3 L 163 0 L 150 0 L 150 13 L 153 13 L 153 5 L 168 20 L 153 35 L 153 27 L 150 27 L 150 40 Z" fill="#a4885f"/>	</g></svg>